<?xml version="1.0" encoding="utf-8"?>
<!-- Generator: Adobe Illustrator 24.0.3, SVG Export Plug-In . SVG Version: 6.00 Build 0)  -->
<svg version="1.1" id="Layer_1" xmlns="http://www.w3.org/2000/svg" xmlns:xlink="http://www.w3.org/1999/xlink" x="0px" y="0px"
	 viewBox="0 0 595 65.2" style="enable-background:new 0 0 595 65.2;" xml:space="preserve">
<style type="text/css">
	.st0{fill:none;stroke:#414042;stroke-width:0.5;stroke-miterlimit:10;}
	.st1{fill:#094066;}
	.st2{fill:#009FDB;}
</style>
<g>
	<line class="st0" x1="239.83" y1="1.79" x2="239.83" y2="65.2"/>
	<g>
		<path class="st1" d="M392.8,44.66v0.71c-2.46,0.19-2.71,0.4-2.71,3.77v6.45c0,2.63,0.34,4.6,1.29,5.99
			c0.96,1.36,2.39,2.13,4.45,2.13c1.94,0,3.55-0.83,4.54-2.32c1.01-1.54,1.39-4.26,1.39-6.86v-1.67c0-3.24-0.12-4.95-0.25-5.9
			c-0.16-1.08-0.99-1.51-3.03-1.6v-0.71h7.41v0.71c-1.7,0.06-2.5,0.53-2.66,1.6c-0.12,0.96-0.24,2.66-0.24,5.9v2.07
			c0,3.58-0.55,6.12-2.35,8.03c-1.32,1.42-3.55,2.22-5.71,2.22c-1.7,0-3.65-0.4-5.07-1.58c-1.63-1.33-2.38-3.43-2.38-6.95v-7.54
			c0-3.37-0.25-3.58-2.84-3.77v-0.71H392.8z M431.94,64.95h-0.8l-13.41-16.27h-0.06v7.87c0,3.24,0.12,4.91,0.25,5.87
			c0.15,1.08,0.98,1.51,3.02,1.61v0.71h-7.41v-0.71c1.7-0.06,2.5-0.52,2.66-1.61c0.13-0.96,0.25-2.63,0.25-5.87v-6.7
			c0-2.22-0.03-2.72-0.59-3.43c-0.58-0.73-1.42-0.96-2.72-1.05v-0.71h4.51l13,15.56h0.06v-7.38c0-3.24-0.12-4.91-0.25-5.87
			c-0.16-1.08-0.99-1.51-3.03-1.6v-0.71h7.41v0.71c-1.7,0.06-2.5,0.53-2.66,1.6c-0.12,0.96-0.25,2.63-0.25,5.87V64.95z"/>
		<path class="st1" d="M463.66,46.59l4.35,13.68h0.07l5.17-16.24h0.78l5.85,16.21h0.06c1.33-4.08,3.21-10.9,3.75-13.23
			c0.46-1.88,0.3-2.26-1.16-2.43l-0.94-0.13v-0.74h6.86v0.74c-2.14,0.26-2.36,0.39-3.43,3.33c-0.29,0.81-2.65,8.25-5.37,17.15h-0.87
			l-5.83-15.82l-0.06,0.07l-5.27,15.75h-0.9l-5.58-17.32"/>
		<path class="st1" d="M501.94,55.52h5.72l-2.84-7.96h-0.06L501.94,55.52 M508.12,63.99l1.03-0.13c1.2-0.13,1.33-0.48,1-1.49
			c-0.22-0.77-1.17-3.29-2.07-5.63h-6.57c-0.33,0.84-1.17,3.37-1.62,4.73c-0.61,1.87-0.32,2.3,1.13,2.43l0.97,0.09v0.74h-6.92v-0.74
			c2.1-0.23,2.36-0.42,3.49-3.3l6.67-17.17l0.74-0.29l2.3,6.15c1.52,4.11,2.94,8.22,4.21,11.52c1.03,2.72,1.45,2.94,3.46,3.1v0.74
			h-7.83V63.99z"/>
		<path class="st1" d="M534.25,60.04c0,3.53,0.26,3.76,3.42,3.95v0.74h-9.44v-0.74c3.04-0.19,3.3-0.42,3.3-3.95V44.77h-1.52
			c-2.88,0-3.76,0.42-4.24,1.04c-0.36,0.45-0.75,1.36-1.13,2.78h-0.81c0.13-1.97,0.32-4.04,0.39-5.69h0.45
			c0.48,0.74,0.81,0.81,1.68,0.81h13.26c0.84,0,1.01-0.19,1.52-0.81h0.45c0.03,1.36,0.2,3.72,0.36,5.6l-0.82,0.1
			c-0.32-1.56-0.68-2.46-1.16-2.98c-0.55-0.61-1.55-0.84-3.56-0.84h-2.16V60.04"/>
		<path class="st1" d="M554.09,48.4c0-3.53-0.26-3.76-2.84-3.95v-0.74h14.17c0.04,0.55,0.19,2.91,0.36,4.72l-0.81,0.1
			c-0.32-1.62-0.68-2.46-1.17-2.98c-0.52-0.55-1.59-0.78-3.56-0.78h-2.46c-0.9,0-0.97,0.07-0.97,1.01v7.38h3.26
			c2.79,0,2.88-0.2,3.2-2.59h0.81v6.41h-0.81c-0.16-1.19-0.26-1.85-0.68-2.2c-0.42-0.36-1.13-0.42-2.52-0.42h-3.26v5.73
			c0,1.85,0.19,2.82,0.81,3.2c0.62,0.39,1.78,0.39,3.3,0.39c1.84,0,3.36-0.16,4.07-0.94c0.55-0.59,1.07-1.68,1.56-3.17l0.81,0.1
			c-0.16,0.91-0.87,4.21-1.13,5.08h-15.3v-0.74c2.91-0.19,3.17-0.42,3.17-3.95V48.4"/>
		<path class="st1" d="M581.35,54.54h1.88c1.32,0,2.36-0.16,3.24-0.88c1.38-1.1,1.87-2.68,1.87-4.27c0-3.4-2.46-4.76-4.88-4.76
			c-1.1,0-1.56,0.07-1.82,0.16c-0.19,0.06-0.29,0.22-0.29,0.87V54.54 M581.35,60.04c0,3.53,0.26,3.76,2.91,3.95v0.74h-8.61v-0.74
			c2.72-0.19,2.98-0.42,2.98-3.95V48.4c0-3.53-0.26-3.76-2.85-3.95v-0.74H584c2.07,0,3.92,0.29,5.11,1.1
			c1.3,0.81,2.14,2.26,2.14,4.14c0,2.69-1.65,4.6-4.27,5.66c0.58,0.97,1.9,3.2,2.88,4.63c1.16,1.72,1.84,2.59,2.72,3.56
			c0.68,0.81,1.26,1.33,2.42,1.62l-0.07,0.61h-0.45c-3.72-0.09-4.85-1.23-6.08-3.01c-1.01-1.46-2.36-3.85-3.27-5.37
			c-0.52-0.84-1.03-1.16-2.04-1.16h-1.75V60.04z"/>
		<path class="st1" d="M268.21,31.4c26.23,25,68.14,0.49,68.14,0.49c10.79-4.91,18.14-9.07,18.14-9.07
			c18.14-9.8,28.67-13.72,28.67-13.72c34.32-13.48,56.13-0.25,56.13-0.25c16.18,7.85,24.39,37.81,24.39,37.81l-2.51,1.08
			c-5.46-16.58-14.03-23.45-14.03-23.45c-16.67-16.18-49.27-7.35-49.27-7.35c-11.27,3.19-25.98,9.56-25.98,9.56
			c-27.7,11.52-39.22,14.46-39.22,14.46C286.59,55.18,268.21,31.4,268.21,31.4"/>
	</g>
	<g>
		<path d="M108.62,4.58v17.29c0,2.87-0.89,5.15-2.69,6.82c-1.8,1.67-4.25,2.51-7.36,2.51c-3.06,0-5.5-0.81-7.3-2.43
			c-1.8-1.62-2.72-3.85-2.76-6.69V4.58h5.4v17.33c0,1.71,0.41,2.97,1.24,3.76c0.82,0.78,1.95,1.18,3.41,1.18
			c3.04,0,4.58-1.6,4.63-4.8V4.58H108.62z"/>
		<path d="M117.51,11.33l0.17,2.25c1.39-1.75,3.26-2.62,5.6-2.62c2.07,0,3.6,0.61,4.62,1.82c1.01,1.22,1.52,3.03,1.55,5.45v12.6
			h-5.2V18.36c0-1.11-0.24-1.91-0.72-2.41c-0.47-0.5-1.28-0.75-2.4-0.75c-1.47,0-2.56,0.63-3.3,1.88v13.76h-5.2V11.33H117.51z"/>
		<path d="M138.87,30.83h-5.22V11.33h5.22V30.83z M133.34,6.27c0-0.78,0.27-1.43,0.78-1.93c0.52-0.51,1.24-0.75,2.13-0.75
			c0.88,0,1.6,0.25,2.12,0.75c0.53,0.51,0.8,1.15,0.8,1.93c0,0.8-0.27,1.45-0.81,1.95c-0.53,0.51-1.24,0.76-2.12,0.76
			c-0.87,0-1.58-0.25-2.12-0.76C133.61,7.72,133.34,7.07,133.34,6.27"/>
		<path d="M149.39,6.53v4.8h3.34v3.82h-3.34v9.74c0,0.72,0.14,1.24,0.42,1.55c0.28,0.31,0.81,0.46,1.59,0.46
			c0.57,0,1.08-0.04,1.54-0.12v3.95c-1.02,0.31-2.08,0.46-3.15,0.46c-3.66,0-5.51-1.85-5.59-5.54V15.14h-2.85v-3.81h2.85v-4.8
			H149.39z"/>
		<path d="M163.3,15.17c-1.04,0-1.87,0.35-2.51,1.05c-0.64,0.7-1.05,1.7-1.24,3.01h7.25v-0.42c-0.02-1.16-0.33-2.06-0.94-2.69
			C165.26,15.48,164.4,15.17,163.3,15.17 M163.89,31.2c-2.86,0-5.19-0.87-6.98-2.63c-1.8-1.76-2.69-4.09-2.69-7.01v-0.51
			c0-1.96,0.38-3.71,1.14-5.26c0.75-1.55,1.83-2.73,3.21-3.57c1.39-0.84,2.97-1.25,4.75-1.25c2.67,0,4.77,0.84,6.3,2.52
			c1.54,1.68,2.3,4.07,2.3,7.16v2.12H159.5c0.17,1.27,0.67,2.3,1.52,3.06c0.85,0.77,1.92,1.15,3.21,1.15c2.01,0,3.57-0.73,4.71-2.18
			l2.56,2.86c-0.78,1.11-1.83,1.97-3.17,2.59C167,30.88,165.52,31.2,163.89,31.2"/>
		<path d="M179.52,21.33c0,1.83,0.32,3.23,0.95,4.21c0.64,0.97,1.56,1.46,2.77,1.46c1.61,0,2.74-0.67,3.4-2.04v-7.71
			c-0.65-1.36-1.77-2.04-3.37-2.04C180.78,15.21,179.52,17.25,179.52,21.33 M174.32,20.94c0-3.04,0.68-5.46,2.04-7.26
			s3.23-2.71,5.6-2.71c1.9,0,3.47,0.71,4.71,2.13V3.16h5.22v27.68h-4.71l-0.25-2.08c-1.29,1.62-2.97,2.43-5,2.43
			c-2.3,0-4.13-0.91-5.52-2.72C175.01,26.68,174.32,24.16,174.32,20.94"/>
		<polygon points="110.1,62.59 104.69,62.59 94.17,45.31 94.17,62.59 88.77,62.59 88.77,36.34 94.17,36.34 104.71,53.65 
			104.71,36.34 110.1,36.34 		"/>
		<path d="M120.54,58.96c0.77,0,1.48-0.18,2.12-0.52c0.64-0.34,1.13-0.81,1.44-1.38v-3.35h-1.94c-2.61,0-4,0.91-4.16,2.71
			l-0.02,0.31c0,0.65,0.23,1.18,0.68,1.6C119.13,58.75,119.75,58.96,120.54,58.96 M124.85,62.59c-0.24-0.46-0.42-1.05-0.52-1.75
			c-1.26,1.4-2.9,2.11-4.91,2.11c-1.91,0-3.49-0.55-4.75-1.66c-1.26-1.11-1.88-2.5-1.88-4.18c0-2.07,0.76-3.66,2.3-4.76
			c1.54-1.11,3.74-1.67,6.64-1.68h2.4v-1.12c0-0.91-0.23-1.62-0.7-2.17c-0.46-0.54-1.19-0.81-2.19-0.81c-0.87,0-1.57,0.21-2.07,0.63
			c-0.5,0.42-0.75,0.99-0.75,1.74h-5.2c0-1.13,0.34-2.18,1.04-3.14c0.7-0.96,1.68-1.71,2.96-2.27c1.28-0.55,2.71-0.82,4.29-0.82
			c2.4,0,4.31,0.61,5.72,1.81c1.41,1.2,2.12,2.91,2.12,5.1v8.46c0.01,1.85,0.27,3.25,0.77,4.2v0.31h-5.27V62.59z"/>
		<path d="M138.87,38.28v4.8h3.34v3.82h-3.34v9.74c0,0.72,0.14,1.24,0.42,1.55c0.28,0.31,0.81,0.46,1.59,0.46
			c0.57,0,1.08-0.04,1.54-0.12v3.95c-1.02,0.31-2.08,0.46-3.15,0.46c-3.66,0-5.51-1.85-5.59-5.54V46.89h-2.85v-3.82h2.85v-4.8h5.19
			V38.28z"/>
		<path d="M150.6,62.59h-5.22V43.08h5.22V62.59z M145.06,38.03c0-0.78,0.27-1.43,0.78-1.93c0.52-0.51,1.24-0.75,2.13-0.75
			c0.88,0,1.6,0.25,2.12,0.75c0.53,0.51,0.8,1.15,0.8,1.93c0,0.8-0.27,1.45-0.81,1.95c-0.53,0.51-1.24,0.76-2.12,0.76
			c-0.87,0-1.58-0.25-2.12-0.76C145.33,39.48,145.06,38.83,145.06,38.03"/>
		<path d="M159.28,53.03c0,1.86,0.35,3.27,1.05,4.26c0.7,0.98,1.69,1.47,2.99,1.47c1.26,0,2.24-0.49,2.96-1.46
			c0.71-0.97,1.06-2.52,1.06-4.65c0-1.81-0.35-3.23-1.06-4.22c-0.71-0.99-1.71-1.5-2.99-1.5c-1.27,0-2.25,0.5-2.96,1.49
			C159.63,49.4,159.28,50.94,159.28,53.03 M154.08,52.65c0-1.93,0.38-3.66,1.12-5.17c0.74-1.51,1.82-2.69,3.21-3.51
			c1.4-0.83,3.03-1.25,4.87-1.25c2.63,0,4.78,0.81,6.44,2.42c1.67,1.61,2.6,3.8,2.78,6.57l0.03,1.34c0,3-0.84,5.39-2.51,7.21
			c-1.67,1.81-3.91,2.72-6.73,2.72s-5.05-0.91-6.73-2.71c-1.68-1.8-2.52-4.26-2.52-7.35v-0.25H154.08z"/>
		<path d="M180.54,43.08l0.17,2.25c1.39-1.75,3.26-2.62,5.6-2.62c2.07,0,3.6,0.61,4.62,1.82c1.01,1.22,1.52,3.03,1.55,5.45v12.6
			h-5.2V50.11c0-1.11-0.24-1.91-0.72-2.41c-0.47-0.5-1.28-0.75-2.4-0.75c-1.47,0-2.56,0.63-3.3,1.88v13.76h-5.2V43.08H180.54z"/>
		<path d="M206.42,57.2c0-0.64-0.31-1.14-0.95-1.5c-0.63-0.36-1.65-0.7-3.04-0.98c-4.64-0.97-6.96-2.95-6.96-5.91
			c0-1.74,0.72-3.17,2.15-4.33c1.44-1.16,3.31-1.74,5.63-1.74c2.47,0,4.45,0.59,5.93,1.75c1.48,1.17,2.22,2.69,2.22,4.54h-5.2
			c0-0.74-0.24-1.36-0.72-1.85c-0.49-0.49-1.23-0.73-2.25-0.73c-0.87,0-1.56,0.2-2.03,0.6c-0.47,0.4-0.72,0.91-0.72,1.51
			c0,0.57,0.28,1.04,0.82,1.39c0.55,0.35,1.47,0.66,2.76,0.92c1.29,0.25,2.39,0.55,3.28,0.87c2.75,1.01,4.13,2.76,4.13,5.25
			c0,1.78-0.76,3.22-2.29,4.32c-1.52,1.11-3.49,1.65-5.91,1.65c-1.63,0-3.08-0.29-4.35-0.87c-1.27-0.59-2.26-1.38-2.98-2.4
			c-0.72-1.02-1.08-2.11-1.08-3.29h4.94c0.04,0.93,0.39,1.64,1.03,2.12c0.64,0.5,1.49,0.74,2.56,0.74c0.99,0,1.76-0.19,2.26-0.56
			C206.16,58.31,206.42,57.81,206.42,57.2"/>
		<path class="st2" d="M17.57,49.96c-0.18-0.45-0.72-1.36-1.26-2.34l0.09-0.09c0.36,0.36,0.81,0.63,1.17,1.08V49.96z M17.57,61.23
			c-1.08-0.54-2.16-1.35-3.16-2.43l0.09-0.09c1.35,0.63,2.25,1.08,3.06,1.26v1.26H17.57z M17.57,45.45
			c-4.14-4.87-6.49-11.01-6.49-17.77S13.52,14.6,17.57,9.9v2.43c-2.97,3.97-4.87,8.75-5.05,13.89c0,0.18,0,0.36-0.09,0.63
			c0.18-0.09,0.45-0.09,0.63-0.09h3.25c0.09,0,0.28,0,0.45,0.09c-0.09-0.18-0.09-0.36-0.09-0.54c-0.09-1.71,0.36-3.43,0.91-5.14
			v17.04c-0.36-0.28-0.63-0.63-0.81-0.82h-0.1c0,0.09-0.18,0.28-0.27,0.28c-0.36,0-0.54-0.28-0.99-0.81
			c-0.36,0.18-0.45,0.09-0.54-0.09l-0.63-1.62c0-0.36,0.09-1.8,0.99-1.8c0.18,0,0.18,0,0.36,0.18c0.18,0.09,0.45-0.09,0.45-0.45
			l0.72-0.28l0.45,0.63l0.18,0.18c-0.09-0.36-0.28-0.72-0.36-1.36c-0.19-0.9-0.45-2.97-0.45-3.6c0-0.18,0-0.36,0.09-0.54
			c-0.18,0.09-0.36,0.09-0.45,0.09h-3.25c-0.18,0-0.27,0-0.54-0.09c0.09,0.27,0.09,0.36,0.09,0.54c0.19,5.32,1.99,10.37,5.05,14.25
			V45.45z M18.57,2.97c-3.16,2.62-4.68,6.85-9.47,9.93c2.34-9.21,7.21-8.12,9.38-10.01L18.57,2.97z M17.57,58.34
			c-5.31-0.63-8.12-3.88-9.28-5.96l0.09-0.09c3.06,2.88,5.05,2.8,9.19,3.25V58.34z M11.09,6.66c-2.88,2.25-2.08,4.51-4.33,10.64
			v0.09c2.44-4.87,6.31-4.6,7.93-8.48h0.09c-1.35,4.33-1.54,4.69-3.42,6.31c-2.62,2.25-4.59,3.51-5.77,5.59v-6.31
			c0-3.7,2.25-7.13,5.5-7.94V6.66z M17.57,54.37l-3.79-0.81C9,52.56,3.87,48.77,2.52,42.83l0.09-0.09c1.35,2.97,3.7,4.33,8.28,6.59
			c2.25,1.08,4.59,3.25,5.41,3.51l0.09-0.09c-2.08-1.8-3.34-3.43-3.7-5.5c-0.54-2.71-1.36-6.5-1.71-7.67l0.09-0.09
			c2.34,3.34,2.97,4.24,3.79,6.4c1.26,3.25,1.89,5.14,2.71,6.4v2.08H17.57z M4.59,25.69c0.45-2.17,0.81-3.79,3.25-5.96
			c2.62-2.34,2.97-2.71,3.51-3.88h0.09c-0.18,1.08-0.99,3.97-2.16,5.77c-4.05,5.68-4.59,6.4-4.78,8.57H4.42
			c-0.81-3.88-2.43-6.85-2.43-10.01c0-2.8,0.72-5.5,3.25-8.75h0.09c-0.36,0.91-0.99,2.08-0.99,3.25c0,3.79,0.36,6.03,0.36,7.85
			c0,1.45-0.09,2.25-0.19,3.15h0.09V25.69z M1.26,21.36c0,1.08-0.09,1.62-0.09,2.8c0,2.25,2.88,6.76,3.97,11.99h0.09
			c0-0.18-0.45-1.89-0.45-2.62c0-4.42,3.42-7.22,4.14-10.28H9C9.37,27.5,6.3,35.16,6.3,37.15c0,0.72,0,1.71,0.09,2.71H6.31
			c-2.97-4.96-6.22-6.13-6.22-13.26c0-1.62,0.72-4.23,1.08-5.23H1.26z M8.56,31.92c0.99,2.53,1.17,4.14,1.62,8.12
			c0.45,4.51,0.63,6.31,1.89,8.65L5.4,44.27C3.16,42.91,0,38.41,0,34.26c0-0.63,0.09-1.17,0.18-1.71c0.72,5.05,4.78,6.05,8.92,12.62
			l0.09-0.09c-0.72-1.35-1.71-3.79-1.71-5.14c0-2.53,0.99-3.97,0.99-8.02H8.56z"/>
		<path class="st2" d="M33.63,31.2h-0.18l-0.09-0.09h-0.09c-0.18,0.36-0.28,0.54-0.81,1.17L33.63,31.2z M32.18,34.61
			c-0.18,0.18-0.36,0.28-0.45,0.28c0.18,0.09,0.28,0.18,0.36,0.27c1.26,1.08,2.97,1.8,4.68,2.08c0.09-0.45,0.18-1.45,0.54-1.45
			c0.63,0,0.72,0,0.72-0.27c0-0.09-0.45-0.54-0.45-0.63c0-0.28,0.09-0.36,0.18-0.45c-0.09-0.09-0.09-0.36-0.09-0.54
			c0-0.19,0.09-0.36,0.19-0.45c-0.19,0.09-0.36,0.18-0.54,0.18c-0.89-0.09-1.71-0.45-2.43-0.99c-0.18-0.09-0.36-0.28-0.45-0.54
			c0,0.18-0.18,0.45-0.36,0.63L32.18,34.61z M37.5,18.39c0-0.09,0-0.28,0.09-0.54c-0.18,0.09-0.28,0.19-0.45,0.19
			c-1.98,0.36-3.7,1.17-5.14,2.34l-0.45,0.36l0.28-0.09c0.28,0,1.08,0.63,1.35,0.81v0.18l-0.27,0.09v0.09
			c0.27,0.28,0.27,0.28,0.45,0.28c0-0.09,0.09-0.36,0.28-0.36c0,0,0.09,0,0.54,0.36h0.45l0.28,0.18c0.28-0.18,0.91-0.36,0.99-0.81
			c0.09-0.63,0.09-0.72,0.54-0.99c0,0.18,0.09,0.45,0.27,0.45c0.09,0,0.36-0.09,0.54-0.09c0.18,0,0.27,0.09,0.36,0.09
			c-0.09-0.09-0.09-0.28-0.09-0.36v-2.17H37.5z M32.18,32.55c0,0-0.28-1.35-0.36-1.35c-0.09,0,0,0.54,0,0.63l-0.18,0.09
			c-0.09-0.18-0.63-0.45-0.63-0.54c-0.09-0.09-0.09-0.18-0.09-0.45l-0.36-0.28c-0.18,0.09-0.18,0.09-0.36,0.09
			c-0.18-0.45-0.63-0.63-1.54-0.72c0.18,0.09,0.36,0.54,0.45,0.91c0.28,0.81,0.81,1.89,1.45,2.71c0.09,0.09,0.18,0.18,0.28,0.45
			c0.09-0.28,0.18-0.36,0.36-0.54L32.18,32.55z M37.5,13.34c0-0.18,0-0.36,0.09-0.54c-0.28,0.09-0.45,0.09-0.63,0.09
			c-3.25,0.27-6.13,1.54-8.29,3.43c-0.18,0.18-0.36,0.28-0.54,0.36c0.27,0.09,0.36,0.18,0.45,0.28l2.16,2.17
			c0.09,0.09,0.18,0.18,0.28,0.36c0.09-0.19,0.18-0.28,0.36-0.45c1.62-1.36,3.61-2.17,5.68-2.43c0.28,0,0.36,0,0.54,0.09
			c0-0.09-0.09-0.28-0.09-0.45v-2.9H37.5z M28.58,38.14c-0.19,0.18-0.36,0.28-0.54,0.36c0.18,0,0.36,0.18,0.54,0.36
			c1.71,1.62,4.05,2.8,6.39,3.43c0.72,0.18,1.54,0.36,1.89,0.36c-0.27-0.18-0.45-0.28-0.63-0.28l-0.54-0.18
			c-0.91-0.27-0.99-1.26-1.54-1.89c-0.09-0.36,0.54-0.36,0.63-1.08c0.09-0.63,0.91-0.72,1.45-0.91c-0.45,0.09-0.72,0.09-1.08,0
			c-1.54-0.45-2.79-1.17-4.05-2.17c-0.09-0.09-0.27-0.18-0.27-0.36c-0.09,0.19-0.28,0.36-0.36,0.45L28.58,38.14z M29.48,35.26
			c0.09-0.09,0.28-0.28,0.54-0.36c-0.28-0.09-0.45-0.28-0.54-0.36c-1.08-1.35-1.8-3.15-2.08-4.87l-0.36,0.09l-0.09-0.09
			c-0.09,0.18-0.28,1.26-0.36,1.36c-0.18,0.09-0.27-0.19-0.36-0.45c-0.28,0-0.45-0.18-0.36-0.36c0.27,0.09,0.54,0.09,0.54-0.45
			c0-0.36-0.18-0.54-0.18-0.81c0-0.09,0.09-0.09,0.09-0.09c0.18,0,0.36,0.45,0.72,0.45c0.45,0,0.63-0.45,0.72-0.91l-0.19-0.09
			c0-0.28,0.09-0.54,0.09-0.91c0-0.45-0.28-0.99-0.81-0.99c-0.36,0-0.81,0.18-0.81,0.45c0,0.27,0.36,1.08,0.36,1.17
			c0,0.18-0.09,0.36-0.28,0.36h-0.61c-0.09,0.18-0.09,0.28-0.09,0.81c-0.91,0.36-0.99,0.36-0.99,0.54v0.09
			c0.18,0.54,0.18,0.54,0.18,1.08c0.81,0.99,0.99,1.26,1.08,2.34c0.27,0.63,0.36,0.81,0.45,2.34c0,0.28,0.09,0.36,0.54,1.08
			L26.6,37.4c0,0.19,0,0.19-0.45,0.54c-0.09,0.18-0.09,0.45,0,0.63L29.48,35.26z M37.5,7.83c0-0.18,0-0.28,0.09-0.45
			c-0.28,0.09-0.28,0.09-0.45,0.09c-4.77,0.36-9.09,2.25-12.34,5.24c-0.09,0.09-0.18,0.19-0.45,0.19c0.18,0,0.28,0.18,0.45,0.27
			l2.25,2.25c0.09,0.09,0.18,0.18,0.28,0.45c0.09-0.28,0.27-0.45,0.36-0.54c2.43-2.17,5.68-3.61,9.47-3.97c0.18,0,0.18,0,0.45,0.09
			c-0.09-0.18-0.09-0.27-0.09-0.45V7.83H37.5z M37.5,44.45c0-0.18,0-0.45,0.09-0.54C37.41,44,37.22,44,36.96,44
			c-3.79-0.45-7.3-2.08-9.82-4.42c0.81,1.08,0.99,1.08,0.99,1.17c0,0.28,0.63,0.54,0.63,0.91c0,0.45-0.54,0.54-0.99,0.45
			c-0.28,0.18-0.54,0.18-0.81,0.18c-0.45,0.28-1.17,0.54-1.54,0.54c-0.45,0-1.17-0.45-1.62-0.54c0.45,0.18,1.17,0.72,1.45,0.9
			c3.25,2.71,7.3,4.42,11.53,4.7c0.27,0,0.63,0,0.81,0.09c-0.09-0.27-0.09-0.45-0.09-0.72V44.45z M23.8,28.21
			c-0.18,0-0.36-0.09-0.45-0.09c0,0.09,0.09,0.27,0.09,0.63c0,0.19,0.09,1.36,0.09,1.71c0,0.28-0.09,0.36-0.09,0.54
			c0.36-0.54,0.63-0.28,0.63-0.63c0-0.18-0.19-0.45-0.19-0.72c0-0.18,0.28-0.45,0.36-0.72c0.09-0.19,0.09-0.36,0.09-0.54
			c0.28-0.09,0.45-0.18,0.54-0.27c-0.19,0-0.28,0.09-0.63,0.09H23.8V28.21z M24.34,26.78c0.28,0,0.45,0.09,0.54,0.09l-0.09-0.91
			c-0.09-0.18-0.09-0.63,0-0.81c0.09-0.18,0.28-0.36,0.45-0.45c0.09-0.18,0.09-0.45,0.18-0.63c0.18-0.18,0.45-0.36,0.45-0.36
			c0.99-0.18,1.08-0.18,0.89-0.72c0.28-0.18,0.28-0.18,0.99-0.54c0.63-0.72,0.72-0.81,1.54-1.17c0.45-0.63,0.63-0.91,0.91-0.99
			c-0.18,0-0.36-0.09-0.54-0.28l-2.16-2.08c-0.18-0.18-0.18-0.28-0.28-0.45c-0.09,0.18-0.18,0.36-0.27,0.45
			c-2.25,2.25-3.51,6.85-3.51,8.2c0,0.28,0,0.54-0.09,0.72c0.28-0.09,0.36-0.09,0.45-0.09h0.53V26.78z M37.5,2.24
			c0-0.09,0-0.28,0.09-0.45c-0.28,0.09-0.36,0.09-0.45,0.09c-6.21,0.45-11.88,2.9-16.21,6.86C20.83,8.83,20.64,9,20.47,9
			c0.18,0.09,0.28,0.18,0.45,0.36l2.16,2.17c0.09,0.09,0.28,0.28,0.36,0.54c0.09-0.27,0.27-0.45,0.36-0.54
			c3.7-3.16,8.2-5.05,13.34-5.5c0.09,0,0.18,0,0.45,0.09c-0.09-0.27-0.09-0.36-0.09-0.54V2.24H37.5z M37.5,49.78
			c0-0.19,0-0.45,0.09-0.63c-0.09,0.09-0.28,0.09-0.63,0.09c-5.05-0.28-9.64-2.25-13.34-5.59c-0.09-0.09-0.36-0.27-0.36-0.45
			c-0.09,0.28-0.18,0.45-0.27,0.54l-2.16,2.17c-0.18,0.18-0.36,0.36-0.54,0.36c0.28,0.09,0.36,0.18,0.54,0.36
			c4.24,3.88,9.92,6.4,15.86,6.68c0.36,0,0.72,0,0.91,0.09c-0.09-0.18-0.09-0.45-0.09-0.63V49.78z M18.49,28.21
			c-0.28,0-0.28,0-0.45-0.09c0,0.18,0.09,0.27,0.09,0.45c0.09,1.45,0.28,2.71,0.54,4.06c0.09,0.54,0.18,0.9,0.27,1.17
			c0-0.28,0.09-0.45,0.19-0.54c0.09-0.09,0.36,0,0.27-0.18c0.09-0.09,0-0.19-0.09-0.45c0.36-0.18,0-0.45,0.09-0.72
			c0.09-0.45,0.28-0.81,0.54-1.08c0.18,0,0.54-0.18,0.99-0.45c0.28-0.18,0.28-0.63,0.63-0.63c0.27,0,0.36,0.18,0.72,0.72
			c-0.08-0.35-0.18-0.45-0.18-0.72c-0.09-0.72-0.09-1.36,0-1.62c-0.09,0-0.18,0.09-0.45,0.09H18.49z M23.89,14.23
			c-0.09-0.09-0.36-0.36-0.36-0.54c-0.09,0.27-0.18,0.36-0.28,0.54c-2.97,3.16-4.87,7.76-5.14,11.99c0,0.18,0,0.36-0.09,0.63
			c0.18-0.09,0.28-0.09,0.45-0.09h3.15c0.09,0,0.28,0,0.45,0.09c-0.09-0.18-0.09-0.36-0.09-0.72c0.27-3.34,1.71-6.68,3.97-9.2
			c0.09-0.09,0.28-0.28,0.45-0.28c-0.18-0.09-0.28-0.18-0.36-0.28L23.89,14.23z M28.13,63.84c2.88-3.15,6.22-4.77,8.56-6.13
			c-0.27-0.09-0.63-0.18-1.08-0.18c-1.8,0-2.97,0.81-4.96,2.17c-3.88,2.34-5.14,2.97-8.03,2.97c-1.54,0-3.34-0.45-5.05-1.45v-1.26
			c0.63,0.18,1.54,0.36,2.34,0.36c2.08,0,3.42-0.54,7.39-1.98c3.34-1.17,4.78-1.8,6.39-1.8c1.54,0,3.88,0.63,4.59,0.81v0.9
			c-2.34,0.82-6.03,3.79-8.65,6.95L28.13,63.84z M17.58,52.3c0.63,1.08,1.17,1.8,1.98,2.53l-1.98-0.45V52.3z M17.58,55.55
			c0.18,0,0.45,0.09,0.63,0.09c2.25,0.18,3.25,0.28,6.31,0.81v-0.09c-1.71-0.54-3.06-1.17-3.88-1.89c-1.26-0.99-1.8-2.25-3.06-4.51
			V48.6c2.08,1.71,4.14,3.7,6.13,5.5c1.71,1.54,3.25,1.89,5.5,2.43c-6.95,1.71-7.84,1.98-9.73,1.98c-0.72,0-1.36-0.09-1.89-0.18
			v-2.79H17.58z M38.31,36.97c-0.18,0-0.89,0.45-0.99,0.54c0,0.28,0.45,0.36,0.99,0.36v17.04c-8.38,0-15.77-3.79-20.73-9.47v-2.53
			c0.45,0.63,0.91,1.17,1.45,1.8c0.18,0.18,0.36,0.45,0.36,0.72c0.09-0.28,0.28-0.54,0.45-0.72l1.98-1.89
			c0.19-0.18,0.36-0.36,0.63-0.45c-0.27-0.18-0.36-0.27-0.54-0.45c-0.28-0.28-0.36-0.36-0.45-0.72h-0.18
			c-0.09-0.09-0.63-0.45-0.81-0.54c-0.18-0.18-0.28-0.45-0.45-0.91c-0.18,0.18-0.28,0.18-0.36,0.18c-0.45,0-1.08-0.54-1.26-1.35
			c-0.18,0-0.63-0.18-0.81-0.36V21.19c0.91-2.88,2.53-5.77,4.59-8.02c0.09-0.09,0.18-0.27,0.45-0.27c-0.36-0.19-0.45-0.36-0.54-0.45
			l-2.16-2.17c-0.19-0.19-0.28-0.36-0.28-0.55c-0.09,0.28-0.18,0.36-0.36,0.54c-0.63,0.72-1.26,1.45-1.71,2.08V9.91
			c5.05-5.77,12.44-9.47,20.73-9.47v22.55c-0.63,0-0.89,0.09-0.99,0.19c0.09,0.27,0.18,0.72,0.18,1.08c0,0.36-1.26,0.81-1.62,0.91
			c0,0.09-0.09,0.36-0.18,0.54c-0.36,0.09-0.63,0.36-0.81,0.72v0.28c-0.09,0.27-0.18,0.63-0.28,0.99v0.45
			c-0.09,0.09-0.18,0.18-0.36,0.18s-0.18-0.91-0.54-0.91h-0.09l-0.18,0.18c-0.18,0-0.36-0.09-0.54-0.18
			c-0.45,0.45-0.54,0.63-0.45,1.08c-0.28,0.09-0.54,0.27-0.45,0.36c0.28,0.09,1.45-0.09,1.71-0.09c0.18-0.18,0.27-0.18,0.36-0.18
			c0.18,0,0.28,0.18,0.28,0.28c0.09,0,0.27-0.09,0.36-0.18c0.28-0.28,0.18-0.54,0.36-0.63c0.28-0.09,0.28,0.28,0.45,0.36
			c-0.54,0.99-0.54,1.08-0.63,1.45c-0.09,0.09-0.18,0.09-0.45,0V29.8h-0.1c-0.09,0.18,0,0.18,0.36,0.63
			c0.18-0.18,0.18-0.18,0.36-0.63c0.72-0.36,0.72-0.36,0.72-0.72c0-0.63,0.09-0.63,1.26-0.63c0.54,0,0.82,0,0.91,0.45l-0.09,0.18
			c0,0,0.18,0.18,0.18,0.36c0,0.09-0.54,0.72-0.54,0.72c0,1.08-1.26,1.17-2.08,1.17c0.72,0.63,1.8,0.99,2.88,0.99V36.97z"/>
		<path class="st2" d="M51.04,28.21c0.54,0.54,0.54,0.63,0.63,1.26c0.72,0.72,0.81,0.72,1.17,1.54c0.18-0.81,0.28-1.36,0.28-2.17
			c0-0.45,0.09-0.63,0.09-0.72c-0.18,0.09-0.45,0.09-0.54,0.09H51.04z M50.67,7.38c0,0,0.09,0,0.27,0.09
			c0.28-0.09,0.54-0.09,0.81,0.18c0.18,0.18,0.18,0.36,0.18,0.54c0,0.18,0.09,0.09,0.09,0.28c0,0.19-0.18,0.18-0.28,0.18
			c-0.27,0-0.36-0.28-0.63-0.54c-0.36-0.28-0.72-0.36-0.72-0.54C50.39,7.38,50.59,7.38,50.67,7.38 M49.59,39.94
			c-0.09-0.09-0.28-0.27-0.28-0.54c-0.18,0.45-0.45,1.08-0.45,1.17c0,0.18,0.09,0.36,0.28,0.45c0.36,0.28,0.72,0.36,0.91,0.45
			c0.18,0.18,0.45,0.28,0.45,0.45c0,0.18-0.09,0.36-0.19,0.54c-0.27,0.54-0.72,0.72-0.72,0.99c0,0.18,0.28,0.18,0.36,0.28
			c0.09,0.18,0,0.45-0.09,0.63c0.89-0.63,1.35-1.08,1.8-1.54c0.18-0.18,0.27-0.36,0.54-0.45c-0.54,0-0.63-0.09-0.63-0.45
			L49.59,39.94z M53.56,55.81c-0.45,0.09-0.99,0.36-1.54,0.54v0.09c0.72-0.09,1.36-0.27,1.54-0.27v1.89
			c-1.08-0.27-3.06-0.72-6.22-1.54c2.25-0.54,3.79-0.91,5.5-2.43c0.28-0.19,0.45-0.45,0.72-0.63V55.81z M45.08,21.55
			c0.27,0.27,0.27,0.27,0.45,0.45l0.36-0.9c0-0.18,0.36-0.28,0.45-0.28c0.27,0,0.81,0.18,1.08,0.18c0.36-0.18,1.62,0,1.99,0.28
			l0.72,1.17c0,0.09,0,0.18-0.09,0.36c0.09,0.18,0.09,0.28,0.18,0.36c0.36-0.28,0.54-0.45,0.89-0.45c0.36,0,0.54,0.18,0.54,0.27
			c0.45,0.45,0.54,0.45,0.72,0.54c0,0.28,0,0.28-0.36,0.54c0,0.18-0.36,0.91-0.36,1.08l0.09,0.09c0.72,0.09,1.17-1.17,1.17-1.17
			c0-0.18-0.45-1.62-0.63-1.98c-0.28-0.28-1.45-0.99-1.54-1.26c0.09-0.18,0.28-0.63,0.28-0.91c0-0.27-1.45-1.98-1.62-2.17
			c-0.09-0.09-0.18-0.28-0.28-0.45c0,0.18-0.18,0.36-0.36,0.54L45.08,21.55z M51.48,32.01c-0.09,0.18-0.28,0.36-0.63,0.36
			c-0.28,0-0.45-0.09-0.72-0.18c-0.09,0.36-0.18,0.63-0.45,0.63c-0.27,0-0.36-0.28-0.36-0.45h-0.09c0,0.09-0.63,1.08-1.08,1.26
			c-0.45,0.09-0.45,0.18-0.91,0.72c-0.54,0.09-0.81,0.18-0.81,0.36c0,0.18,0.18,0.18,0.28,0.18c0,0,0.91-0.28,0.91-0.36
			c0.18-0.45,0.18-0.45,0.54-0.54c0.36-0.18,0.81-0.09,0.81,0.45c0,0.63-0.28,1.62-0.45,2.08c0,0.18-0.36,0.81-0.36,0.99
			c-0.28,0.09-0.45,0.18-0.54,0.18c-0.19,0-2.79-0.81-3.34-0.81c-0.09,0-0.36,0-0.36,0.28c0,0.18,0.91,0.36,1.26,0.45
			c0.18,0,1.26,0.63,1.54,0.63c0,0,1.62-0.09,1.71-0.28c0.09-0.18,0.54-1.45,0.81-1.45c0.09,0,0.18,0.45,0.27,0.9
			c1.36-1.54,2.43-3.43,3.06-5.4H51.48z M45,33.72c0.09,0,0.36-0.09,0.36-0.36c0-0.63-0.63-0.9-0.99-1.08
			c0.09-0.54-0.27-0.36-0.45-0.27c-0.18,0.09-0.18,0.9,0.63,1.08C44.63,33.45,44.73,33.72,45,33.72 M42.29,34.98
			c0.09,0,1.08-0.45,1.08-0.81c-0.45,0-1.08,0.18-1.17,0.72L42.29,34.98z M41.12,5.67c-0.72,0-1.17-0.36-1.35-0.63
			c0.09-0.27,0.18-0.27,0.54-0.18c0.28-0.09,1.98-0.72,2.16-0.72c0.36,0,1.45,0,1.99,0.72c-0.09,0.19-0.36,0.63-0.81,0.63
			c-1.17,0-1.36,0-2.34,0.18H41.12z M39.04,21.19c0.28,0,0.81,0,1.08,0.09c0.18-0.18,0.63-0.72,1.08-0.91
			c0.09-0.09,0.27-0.28,0.27-0.28c0.28,0,0.36,0.19,0.36,0.45c0,0.45-0.28,1.08-0.72,1.45c-0.18,0.09-1.35,0.54-1.17,0.72
			c0.18,0.09,0.36-0.18,0.72-0.18c0.28,0,0.91,0.72,1.08,0.72c0.28,0,0.36-0.18,0.45-0.18c0.09-0.45,0.09-0.54,0.54-0.81
			c0.18-0.18,1.08-0.63,1.26-0.81l0.54-0.54c0,0-0.54,0-0.54-0.19c0-0.27,0.18-0.27,0.28-0.36c0.09-0.09,0.18-0.09,0.36-0.18
			c-0.18,0-0.36-0.09-0.45-0.18c-1.26-1.17-2.88-1.71-4.78-1.98c-0.18,0-0.27-0.09-0.45-0.19c0.09,0.28,0.09,0.45,0.09,0.54V21.19z
			 M39.04,16.05c0,0.18,0,0.45-0.09,0.63c0.18-0.09,0.36-0.09,0.54-0.09c2.08,0.27,3.97,0.99,5.59,2.25
			c0.09,0.09,0.27,0.27,0.36,0.54c0.18-0.28,0.28-0.36,0.45-0.54l1.89-1.89c0.09-0.09,0.27-0.28,0.45-0.36
			c-0.18-0.09-0.45-0.28-0.54-0.36c-2.08-1.8-5.22-3.06-8.12-3.34c-0.36,0-0.54-0.09-0.63-0.09c0.09,0.18,0.09,0.45,0.09,0.63V16.05
			z M39.04,47.25c0,0.28,0,0.45-0.09,0.72c0.18-0.09,0.54-0.09,0.81-0.09c0.45,0,1.45-0.09,2.71-0.36
			c-0.89-0.28-1.89-0.91-1.89-1.71c0-0.28,0.27-0.54,0.27-0.81c0-0.28-1.08-0.28-1.35-0.36c-0.28-0.19-0.45-0.45-0.63-0.72
			c0,0.09,0.09,0.36,0.18,0.54V47.25z M53.56,62.67c-2.71-0.09-3.97-0.72-7.67-2.97c-2.08-1.35-3.16-2.17-4.96-2.17
			c-0.45,0-0.81,0.09-1.17,0.18c2.34,1.36,5.77,2.97,8.65,6.13l-1.54,1.36c-2.62-3.16-6.31-6.13-8.75-6.95v-0.9
			c0.82-0.18,3.16-0.81,4.69-0.81c1.62,0,3.06,0.63,6.39,1.8c1.89,0.72,3.25,1.17,4.33,1.54v2.79H53.56z M39.04,10.81
			c0,0.18,0,0.45-0.09,0.63c0.18-0.09,0.36-0.09,0.54-0.09c3.06,0.18,5.85,1.26,8.38,3.16c-0.18-0.36-0.18-0.45-0.27-0.54l0.09-0.18
			c-0.28-0.09-0.36-0.09-0.45-0.45c0.09,0,0.18-0.09,0.18-0.18c-0.36-0.63-0.45-0.72-0.54-0.9c0.09-0.09,0.18-0.09,0.28-0.09
			c0.09,0,1.17,1.35,1.26,1.45c0.72,0,0.81,0.09,1.26,1.71c0.82,1.08,0.91,1.17,0.82,1.54c0.45,0.09,1.17,0.81,1.17,1.45
			c0,0.18,0.18,0.18,0.27,0.18c0,0,0.54-0.18,0.72-0.18c0.18,0,0.28,0.18,0.28,0.28c0,0.18-0.28,0.63-0.28,0.72h0.54
			c0.09,0.36,0.09,0.45-0.18,0.63c0,0.09,0,0.28,0.09,0.28c0.28,0.09,0.36,0.09,0.45,0.28v3.43c-0.28,0.36-0.81,1.62-0.99,1.8
			c-0.63,0.18-0.63,0.18-0.63,0.54c0,0.18,0,0.18,0.19,0.27c-0.19,0.09-0.36,0.19-0.54,0.28h1.08c0.28,0,0.45,0.09,0.54,0.09
			c-0.09-0.54,0.09-1.08,0.19-1.54c0.09-0.18,0.09-0.28,0.18-0.45v8.48c-0.54,1.54-1.62,3.34-2.97,4.87
			c-0.18,0.18-0.28,0.27-0.45,0.36c0.28,0.18,0.45,0.36,0.63,0.54l0.99,1.08c0.09-0.54,0-0.72,0.36-0.72c0.72,0,0.81,1.08,0.89,2.08
			c0.09-0.27,0.28-0.54,0.54-0.81v3.25c-0.36-0.36-0.36-0.45-0.45-0.72c-0.1,0.12-0.19,0.21-0.46,0.49
			c-1.08,0.99-2.34,1.99-3.7,2.71c-0.28,0.99-0.45,1.17-0.72,1.17c-0.09,0.27-0.27,0.54-0.54,0.72c-0.18,0.36-0.36,0.45-0.63,0.54
			c-0.09,0.19-0.54,0.36-0.81,0.54c-0.18,0.18-0.36,0.54-0.91,0.54c-1.08,0-0.89-0.54-2.08-1.35c-1.08,0.27-2.43,0.45-3.7,0.54
			c-0.36,0-0.54,0-0.63-0.09c0.09,0.18,0.09,0.45,0.09,0.63v2.97c0,0.18,0,0.45-0.09,0.63c0.18-0.09,0.54-0.09,0.89-0.09
			c4.96-0.19,9.73-1.99,13.78-5.05l-0.09,1.98c-4.42,2.97-9.64,4.7-15.42,4.7V37.86c0.19,0.09,0.36,0.09,0.54,0
			c0.18,0,1.35-0.27,1.35-0.27c0.18,0.45,0.18,0.45,0.28,0.54c0.36,0.09,0.91,0.18,1.08,0.18c0.18,0,0.45-0.63,0.54-0.72
			c0.72-0.19,2.08-0.63,2.08-1.62c0-0.36-0.28-0.36-0.28-0.36c-0.18,0.09-0.81,0.54-0.99,0.54c-0.09,0-0.63-0.18-0.63-0.18
			c0.09,0.18,0.09,0.18,0,0.45c-0.27,0.18-0.27,0.18-0.45,0.18c-0.27-0.27-0.36-0.36-0.54-0.36L41,36.6c-0.09,0-1.26-0.63-1.35-0.63
			c-0.54,0.18-0.54,0.18-0.72,0.27l-0.82,0.63v-4.6c0.19,0,0.54-0.09,0.72-0.09c0.36,0,0.45-0.54,0.63-1.17
			c0.09-0.36,0.18-0.54,0.36-0.54c0.36,0,0.99,0.18,1.08,0.09c0.28-0.18,0.36-0.91,0.36-1.26c0-0.09-0.28-0.28-0.28-0.45
			c0-0.63,0.09-1.08-0.18-1.35c-0.09-0.18-0.54,0-0.54-0.28c0-0.18,0.09-0.36,0.28-0.54c0,0,0.09-0.09,0.09-0.28
			c0-0.19-0.09-0.63-0.09-0.81c-0.28-0.09-0.36,0-0.54-0.09c-0.09-0.18-0.18-0.45-0.36-0.63c-0.18,0-0.36-0.09-0.36-0.36
			c-0.45,0.09-0.63-0.18-0.99-0.18c-0.28,0-0.45-0.91-0.09-0.91c0.45,0,0.72,0.18,0.72-0.09c0-0.18-0.45-0.36-0.82-0.36V0.44
			c5.77,0,11,1.71,15.42,4.69v1.89c-3.88-2.88-8.75-4.87-13.97-5.14c-0.18,0-0.45,0-0.63-0.09c0.09,0.18,0.09,0.36,0.09,0.63V5.3
			c0,0.09,0,0.36-0.09,0.54c0.27-0.28,0.45-0.45,0.54-0.36c0.28,0.18,0.09,0.45-0.09,0.72c0.09,0,0.18-0.09,0.45-0.09
			c2.88,0.18,5.86,0.99,8.38,2.34c0.54-0.09,0.91-0.28,1.36-0.28c0.18,0,0.99,0.28,1.17,0.18c0.45,0,0.91,1.17,1.62,1.45
			c0.28,0.19,0.18,0.99,0.63,1.17c0.18,0,0.28,0.18,0.54,0.45v6.05c-0.28-0.28-0.72-0.54-0.81-0.63c-0.19-0.09-0.28-0.27-0.28-0.63
			l-1.26-0.45c-0.18-0.28-0.28-1.54-0.36-1.71c-0.09-0.36-0.54-0.81-0.72-0.81c-0.18,0-0.72,0.09-0.81,0.09
			c-0.36-0.45-0.72-1.08-0.63-1.54c-0.27-0.36-0.27-0.45-0.54-1.26c-0.09-0.09-0.45-0.54-0.72-0.81c-2.25-1.26-5.14-1.99-7.84-2.25
			c-0.27,0-0.45,0-0.63-0.09c0.09,0.28,0.09,0.45,0.09,0.72v2.71H39.04z"/>
		<path class="st2" d="M75.56,21.36c0.28,0.99,0.99,3.61,0.99,5.23c0,7.12-3.25,8.3-6.22,13.26h-0.09c0.09-0.99,0.18-1.99,0.18-2.71
			c0-1.99-3.06-9.65-2.79-13.89h0.09c0.72,3.06,4.14,5.87,4.14,10.28c0,0.72-0.36,2.44-0.36,2.62h0.09
			c0.99-5.23,3.97-9.74,3.97-11.99c0-1.17-0.09-1.71-0.09-2.8H75.56z M72.22,25.69c-0.09-0.9-0.27-1.71-0.27-3.15
			c0-1.8,0.45-4.06,0.45-7.85c0-1.17-0.72-2.34-0.99-3.25h0.09c2.43,3.25,3.25,5.96,3.25,8.75c0,3.16-1.62,6.13-2.43,10.01h-0.09
			c-0.27-2.17-0.72-2.88-4.77-8.57c-1.26-1.8-2.08-4.69-2.25-5.77h0.09c0.63,1.17,0.91,1.54,3.61,3.88
			c2.43,2.17,2.71,3.79,3.25,5.96h0.07V25.69z M68.26,31.92c0,4.06,0.89,5.5,0.89,8.02c0,1.36-0.89,3.79-1.62,5.14l0.09,0.09
			c4.05-6.59,8.11-7.57,8.84-12.62c0.09,0.54,0.18,1.08,0.18,1.71c0,4.14-3.16,8.65-5.31,10.01l-6.76,4.42
			c1.35-2.34,1.45-4.14,1.98-8.65c0.36-3.97,0.54-5.59,1.62-8.12H68.26z M65.83,6.57c3.25,0.81,5.4,4.24,5.4,7.94v6.31
			c-1.17-2.08-3.15-3.34-5.77-5.59c-1.8-1.62-2.08-1.98-3.42-6.31h0.09c1.62,3.88,5.5,3.6,7.93,8.48v-0.09
			c-2.25-6.13-1.45-8.39-4.23-10.64V6.57z M58.25,2.87c2.16,1.89,7.04,0.81,9.38,10.01c-4.78-3.07-6.31-7.31-9.47-9.93L58.25,2.87z
			 M65.73,39.58c-0.45,1.17-1.26,4.96-1.62,7.22c-0.54,2.8-1.8,4.14-3.79,5.96l0.09,0.09c0.81-0.28,3.15-2.43,5.41-3.51
			c4.59-2.25,6.94-3.61,8.2-6.59l0.09,0.09c-1.26,5.96-6.48,9.74-11.27,10.73l-5.68,1.26c1.89-1.71,2.43-3.34,4.68-8.93
			c0.81-2.17,1.35-3.06,3.79-6.4L65.73,39.58z M60.5,28.21c-0.27,0-0.45,0-0.72-0.09c0.09,0.27,0.09,0.36,0.09,0.54
			c-0.18,5.05-2.16,9.83-5.5,13.44c-0.09,0.09-0.28,0.27-0.45,0.36c0.18,0.09,0.28,0.18,0.45,0.36L56.54,45
			c0.18,0.18,0.27,0.27,0.36,0.54c0.09-0.28,0.28-0.45,0.54-0.72c3.88-4.24,6.31-10.01,6.58-16.15c0-0.18,0-0.28,0.09-0.54
			c-0.28,0.09-0.45,0.09-0.63,0.09H60.5V28.21z M63.39,26.78c0.28,0,0.45,0,0.72,0.09c-0.09-0.18-0.18-0.45-0.18-0.72
			c-0.28-6.22-2.79-11.73-6.76-15.96c-0.19-0.18-0.28-0.28-0.36-0.54c0,0.18-0.18,0.36-0.36,0.54l-2.08,2.08
			c-0.18,0.18-0.36,0.27-0.45,0.27c0.18,0.09,0.28,0.18,0.45,0.36c3.16,3.79,5.22,8.2,5.5,13.25c0,0.18,0,0.36-0.09,0.72
			c0.36-0.09,0.54-0.09,0.72-0.09H63.39z M53.57,59.87c1.26,0.27,2.08,0.45,3.16,0.45c1.71,0,2.79-0.45,5.31-1.62v0.09
			c-2.43,2.71-5.59,3.88-8.12,3.88h-0.35V59.87z M53.57,56.18c2.08-0.28,2.97-0.36,4.68-0.54c4.59-0.54,6.67-0.28,9.92-3.34
			l0.09,0.09c-1.36,2.34-4.69,6.13-11.18,6.13c-0.99,0-1.8-0.09-3.51-0.45V56.18z M53.57,53.47c2.08-1.89,4.33-4.06,6.58-5.96
			l0.09,0.09c-2.16,3.61-2.71,5.5-4.33,6.85c-0.54,0.54-1.36,0.9-2.34,1.35V53.47z M53.57,20.47c0-0.09,0.09,0,0.09,0
			c0.09,0.36,0.36,0.81,0.36,1.17l-0.28,0.81c0,0,0.36,0.45,0.09,0.91c0,0.09-0.09,0.18-0.28,0.54v-3.43H53.57z M53.57,11.35
			c0.09-0.28,0.09-0.28,0.28-0.45l1.61-1.61c0.18-0.18,0.45-0.36,0.63-0.36c-0.28-0.09-0.45-0.28-0.63-0.45
			c-0.63-0.54-1.26-0.99-1.89-1.45V5.13c7.11,4.87,11.9,13.16,11.9,22.55c0,9.37-4.78,17.67-11.9,22.55l0.09-1.98
			c0.54-0.36,1.26-0.99,1.89-1.54c0.18-0.18,0.36-0.27,0.54-0.36c-0.18-0.09-0.36-0.18-0.54-0.36L53.57,44v-3.25
			c2.88-3.25,4.68-7.57,4.87-12.08c0-0.18,0-0.36,0.09-0.54c-0.18,0-0.28,0.09-0.54,0.09H55.1c-0.28,0-0.36,0-0.63-0.09
			c0.09,0.27,0.09,0.45,0.09,0.72c0,0.45-0.09,1.26-0.27,2.08c0,0,0.18-0.09,0.27-0.09c0.28,0.28,0.45,0.45,0.45,0.72
			c0,0.09-0.09,0.45-0.72,0.28c-0.19,0.18-0.19,0.18-0.28,0.18c-0.09,0.27-0.28,0.72-0.45,1.35v-8.48c0.09-0.18,0.36-0.81,0.45-0.9
			c0.09-0.09,0.18-0.09,0.36-0.09c0.09,0.28-0.18,1.36-0.18,1.45c0.28,0.36,0.36,0.99,0.28,1.62c0.27-0.09,0.45-0.18,0.63-0.18h2.79
			c0.18,0,0.36,0,0.63,0.09c-0.09-0.28-0.09-0.45-0.09-0.72c-0.18-2.34-0.72-4.51-1.62-6.49c-0.18,0.09-0.45,0.18-0.54,0.18
			c-0.18,0-0.45-0.54-0.54-0.54c-1.08-1.54-1.26-1.54-1.71-1.54c-0.09-0.09-0.28-0.09-0.45-0.28v-6.15H53.57z"/>
	</g>
</g>
</svg>
